<svg width="61" height="61" viewBox="0 0 61 61" fill="none" xmlns="http://www.w3.org/2000/svg">
<path d="M30.4111 59.9999C30.4407 60 30.4704 60 30.5 60C46.7924 60 60 46.7924 60 30.5C60 14.2076 46.7924 1 30.5 1C30.4703 1 30.4406 1.00004 30.4109 1.00013M30.4111 59.9999C30.4111 59.9999 30.4111 59.9999 30.4111 59.9999ZM30.4111 59.9999C14.1597 59.9518 1 46.7627 1 30.5C1 14.2503 14.1385 1.06924 30.372 1.00027M30.4111 59.9999C53.8823 39.6961 53.9593 21.0212 30.3981 1.02194M30.4111 59.9999C37.7898 48.3543 37.7869 13.005 30.3922 1.03213M30.4111 59.9999C23.2613 48.4458 23.4764 12.8641 30.3922 1.03213M30.4111 59.9999C7.74974 38.8671 7.29432 21.6595 30.372 1.00027M30.372 1.00027C30.3721 1.00027 30.3718 1.00027 30.372 1.00027ZM30.372 1.00027C30.372 1.00027 30.3726 1.00027 30.3726 1.00027M30.372 1.00027C30.3786 1.01087 30.3856 1.02149 30.3922 1.03213M30.3726 1.00027C30.3854 1.00022 30.3982 1.00017 30.4109 1.00013M30.3726 1.00027C30.3727 1.00036 30.3725 1.00018 30.3726 1.00027ZM30.3726 1.00027C30.3811 1.00749 30.3896 1.01472 30.3981 1.02194M30.4109 1.00013C30.4067 1.00739 30.4024 1.01466 30.3981 1.02194M30.4109 1.00013C30.411 1.00009 30.4109 1.00018 30.4109 1.00013ZM30.3981 1.02194C30.3962 1.02533 30.3942 1.02873 30.3922 1.03213M1 30.1312H60M6.9 48.2C25.1405 40.4081 35.8596 40.2589 54.1 48.2M7.14583 12.3083C28.0921 20.682 33.2042 20.4208 53.8542 12.3083" stroke="#2F3DB8" stroke-width="2"/>
<path d="M30.7458 18.2962L16.278 26.5344C16.2779 26.5345 16.2778 26.5345 16.2777 26.5345C16.2713 26.5383 16.2664 26.5433 16.2632 26.5489C16.2599 26.5545 16.2583 26.5606 16.2583 26.5666C16.2583 26.5726 16.2599 26.5787 16.2632 26.5844C16.2664 26.59 16.2713 26.595 16.2777 26.5987C16.2778 26.5988 16.2779 26.5988 16.278 26.5988L21.674 29.6714L23.2341 30.5598L30.7458 34.837L45.2136 26.5988L30.7458 18.2962ZM30.7458 18.2962L45.2136 26.5344L30.7458 18.2962ZM46.0926 27.0875L45.2285 26.5844C45.2317 26.5787 45.2333 26.5726 45.2333 26.5666C45.2333 26.5606 45.2317 26.5545 45.2284 26.5489L46.0926 26.0458L45.2284 26.5489C45.2252 26.5433 45.2203 26.5383 45.2139 26.5345L46.0926 27.0875ZM46.0926 27.0875L45.2284 26.5844M46.0926 27.0875L45.2284 26.5844M45.2284 26.5844C45.2252 26.5899 45.2203 26.595 45.2139 26.5987L45.2284 26.5844Z" fill="white" stroke="#323232" stroke-width="2"/>
<path d="M29.7294 37.8071C29.8891 37.8981 30.0699 37.9459 30.2539 37.946C30.438 37.9459 30.6188 37.8981 30.7785 37.8071L40.032 32.5372C40.1124 32.491 40.2036 32.4666 40.2964 32.4667C40.3893 32.4667 40.4805 32.4911 40.5608 32.5374C40.6412 32.5837 40.7079 32.6503 40.7543 32.7305C40.8006 32.8107 40.8249 32.9016 40.8248 32.9941V37.946C40.8249 38.134 40.7746 38.3186 40.679 38.4806C40.5834 38.6427 40.446 38.7763 40.281 38.8676L30.7673 44.1341M29.7294 37.8071L20.4759 32.5372C20.3955 32.491 20.3043 32.4666 20.2115 32.4667C20.1186 32.4667 20.0274 32.4911 19.947 32.5374C19.8667 32.5837 19.8 32.6503 19.7536 32.7305C19.7073 32.8107 19.683 32.9016 19.6831 32.9941V37.946C19.6829 38.134 19.7333 38.3186 19.8289 38.4806C19.9245 38.6427 20.0619 38.7763 20.2268 38.8676L29.7406 44.1341M29.7294 37.8071L29.2344 38.6759M29.7294 37.8071L30.283 43.2592M29.7406 44.1341C29.8976 44.221 30.0743 44.2667 30.2539 44.2667C30.4336 44.2667 30.6103 44.221 30.7673 44.1341M29.7406 44.1341L30.2249 43.2592M29.7406 44.1341L30.2249 43.2592L30.2249 43.2592M30.7673 44.1341L30.283 43.2592M30.7673 44.1341L30.283 43.2592L30.283 43.2592M30.283 43.2592L39.7967 37.9927L39.7967 37.9927C39.8058 37.9877 39.8129 37.9806 39.8177 37.9725C39.8224 37.9645 39.8248 37.9556 39.8248 37.9468L39.8248 37.946V33.806L31.2735 38.6759C31.2735 38.676 31.2734 38.676 31.2734 38.676C30.9627 38.853 30.6114 38.9459 30.254 38.946H30.2538C29.8965 38.9459 29.5451 38.853 29.2345 38.676C29.2344 38.676 29.2344 38.676 29.2344 38.6759M29.2344 38.6759L20.6831 33.806M29.2344 38.6759L20.6831 33.806M20.6831 33.806L20.6831 32.9941M20.6831 33.806L19.981 33.4062M20.6831 33.806L19.981 33.4062M20.6831 33.806V37.946V37.9468C20.6831 37.9556 20.6854 37.9645 20.6902 37.9725C20.6949 37.9806 20.7021 37.9877 20.7111 37.9927L20.7112 37.9927L30.2249 43.2592M20.6831 32.9941C20.6831 32.9936 20.6831 32.9931 20.6831 32.9926L20.6831 32.9941ZM20.6831 32.9941C20.683 33.0774 20.6609 33.1591 20.6194 33.2309C20.5777 33.3031 20.5179 33.3626 20.4463 33.4039C20.3748 33.4451 20.294 33.4666 20.2118 33.4667C20.1311 33.4667 20.0516 33.446 19.981 33.4062M19.981 33.4062C19.981 33.4062 19.9809 33.4061 19.9808 33.4061L30.2539 43.2667C30.2436 43.2667 30.2336 43.264 30.2249 43.2592M40.5306 33.404C40.5294 33.4048 40.5281 33.4055 40.5268 33.4062L40.5306 33.404Z" fill="white" stroke="#323232" stroke-width="2"/>
<line x1="44.9805" y1="26.7991" x2="44.9805" y2="34.1204" stroke="black" stroke-width="2"/>
</svg>
